<svg height="48" viewBox="0 0 48 48" width="48" xmlns="http://www.w3.org/2000/svg"><path d="m41 19-17 11-17-11v-17a.979.979 0 0 1 1-1h32a.979.979 0 0 1 1 1z" fill="#f1f2f2"/><path d="m7 19-6-4 6-6z" fill="#f6b445"/><path d="m47 15-6 4v-5.05-4.95z" fill="#f6b445"/><path d="m41 18.91 6-3.91v28a4.025 4.025 0 0 1 -1.17 2.83l-6.83-6.83-11-11-.28-.43z" fill="#fed049"/><path d="m39 39 6.83 6.83a4.025 4.025 0 0 1 -2.83 1.17h-38a4.025 4.025 0 0 1 -2.83-1.17l6.83-6.83 11-11 .28-.43 3.72 2.43 3.72-2.43.28.43z" fill="#f6b445"/><path d="m20.28 27.57-.28.43-11 11-6.83 6.83a4.025 4.025 0 0 1 -1.17-2.83v-28z" fill="#fed049"/><rect fill="#a4b0c0" height="14" rx="3" width="16" x="16" y="7"/><g fill="none" stroke="#474c54" stroke-linecap="round" stroke-linejoin="round" stroke-width="2"><path d="m41 18.913-17 11.087-17-11.087"/><path d="m1 15v28a4 4 0 0 0 4 4h38a4 4 0 0 0 4-4v-28"/><path d="m39 39-11-11"/><path d="m9 39 11-11"/><path d="m41 14v-12a.979.979 0 0 0 -1-1h-7"/><path d="m7 14v-12a.979.979 0 0 1 1-1h7"/><path d="m6.906 9.094-5.906 5.906"/><path d="m47 15-5.953-5.953"/><path d="m24 7h5a3 3 0 0 1 3 3v8a3 3 0 0 1 -3 3h-10a3 3 0 0 1 -3-3v-8a3 3 0 0 1 3-3h1v-4a1.959 1.959 0 0 1 2-2h4a1.959 1.959 0 0 1 2 2"/><path d="m22 12h4"/><path d="m24 12v4"/></g></svg>